<?xml version="1.0" standalone="no"?><svg xmlns="http://www.w3.org/2000/svg" viewBox="0 0 1440 320"><path fill="#2e4053" fill-opacity="1" d="M0,128L26.7,138.7C53.3,149,107,171,160,181.3C213.3,192,267,192,320,197.3C373.3,203,427,213,480,208C533.3,203,587,181,640,186.7C693.3,192,747,224,800,240C853.3,256,907,256,960,250.7C1013.3,245,1067,235,1120,224C1173.3,213,1227,203,1280,186.7C1333.3,171,1387,149,1413,138.7L1440,128L1440,320L1413.3,320C1386.7,320,1333,320,1280,320C1226.7,320,1173,320,1120,320C1066.7,320,1013,320,960,320C906.7,320,853,320,800,320C746.7,320,693,320,640,320C586.7,320,533,320,480,320C426.7,320,373,320,320,320C266.7,320,213,320,160,320C106.7,320,53,320,27,320L0,320Z"></path></svg>